#!OML:ASF I:\golf\golf\golf 2\Subject 1\2002-09-07\Subject1.ASF
:FULLY-SPECIFIED
:DEGREES
17
root 1.13796 18.1882 -10.2157 8.94924 -5.21839 -3.80158
lowerback -7.6603 0.46755 -3.51536
upperback -1.28462 0.788816 3.68262
thorax 2.8647 0.34675 5.90533
lowerneck -19.8464 0.658289 1.58409
upperneck 31.7421 2.03562 -4.68743
head 14.281 0.393171 -1.81726
rclavicle -4.22417e-016 -3.97569e-015
rhumerus -28.8284 0.084566 -84.6778
rradius 25.2386
rwrist -8.02832
rhand -18.8966 18.0345
rfingers 7.12502
rthumb 7.405 -11.8159
lclavicle -4.22417e-016 -3.97569e-015
lhumerus -31.1892 6.43283 83.6392
lradius 32.3041
lwrist 5.94877
lhand -12.7963 33.6473
lfingers 7.12502
lthumb 13.2896 63.2036
rfemur -13.1459 1.62329 24.7644
rtibia 23.4822
rfoot -13.9704 -4.48614
rtoes 10.7718
lfemur -14.5964 2.67636 -16.5613
ltibia 24.9448
lfoot -13.2488 5.60558
ltoes -6.73894
18
root 1.13979 18.185 -10.2124 8.85598 -5.23699 -3.76708
lowerback -7.58861 0.440517 -3.55158
upperback -1.25004 0.753443 3.69606
thorax 2.86449 0.327903 5.93595
lowerneck -19.8663 0.694679 1.64277
upperneck 32.0509 2.12819 -4.82093
head 14.4308 0.418296 -1.87363
rclavicle 1.4064e-014 2.46493e-014
rhumerus -28.9971 0.212363 -84.6579
rradius 25.2894
rwrist -8.18432
rhand -18.8904 17.905
rfingers 7.12502
rthumb 7.41098 -11.9452
lclavicle 1.4064e-014 2.46493e-014
lhumerus -31.2437 6.83933 83.479
lradius 31.7892
lwrist 5.58132
lhand -12.5327 33.8551
lfingers 7.12502
lthumb 13.5436 63.3946
rfemur -13.0135 1.76798 24.7304
rtibia 23.4354
rfoot -13.9429 -4.68101
rtoes 10.6618
lfemur -14.5337 2.71326 -16.6111
ltibia 25.031
lfoot -13.2798 5.64847
ltoes -7.04628
19
root 1.14134 18.1831 -10.2104 8.81005 -5.2542 -3.86799
lowerback -7.57211 0.429425 -3.47461
upperback -1.20634 0.729573 3.75511
thorax 2.90406 0.314378 5.95241
lowerneck -19.7945 0.743487 1.7275
upperneck 32.2681 2.23278 -4.97139
head 14.5211 0.451232 -1.93699
rclavicle -7.57867e-015 -7.55382e-015
rhumerus -29.1138 0.258846 -84.5931
rradius 25.2712
rwrist -8.19742
rhand -18.8694 17.6402
rfingers 7.12502
rthumb 7.43123 -12.2092
lclavicle -7.57867e-015 -7.55382e-015
lhumerus -31.3165 7.26529 83.3402
lradius 31.3578
lwrist 5.07567
lhand -12.2506 34.0009
lfingers 7.12502
lthumb 13.8155 63.5221
rfemur -12.931 1.85004 24.843
rtibia 23.3893
rfoot -13.9321 -4.73755
rtoes 10.6716
lfemur -14.5055 2.7216 -16.5003
ltibia 25.1078
lfoot -13.3242 5.69205
ltoes -7.47939
20
root 1.14452 18.1833 -10.2102 8.81637 -5.30149 -4.07145
lowerback -7.53112 0.454561 -3.23995
upperback -1.20822 0.741549 3.80859
thorax 2.88014 0.323102 5.87439
lowerneck -19.7152 0.810197 1.81838
upperneck 32.5124 2.34916 -5.08036
head 14.6229 0.495899 -1.98321
rclavicle -2.79541e-014 4.37326e-015
rhumerus -29.2544 0.0613723 -84.4793
rradius 25.2001
rwrist -8.0184
rhand -18.7685 17.5029
rfingers 7.12502
rthumb 7.52857 -12.3432
lclavicle -2.79541e-014 4.37326e-015
lhumerus -31.452 7.49595 83.2245
lradius 30.9479
lwrist 4.86298
lhand -12.2673 33.7246
lfingers 7.12502
lthumb 13.7994 63.2469
rfemur -12.9296 1.99431 25.0498
rtibia 23.4244
rfoot -13.9867 -4.76287
rtoes 11.0416
lfemur -14.5291 2.65664 -16.2771
ltibia 25.196
lfoot -13.3122 5.79586
ltoes -7.17277
21
root 1.14924 18.1806 -10.2094 8.82418 -5.42458 -4.13186
lowerback -7.47105 0.48772 -3.1091
upperback -1.22028 0.774569 3.80555
thorax 2.8318 0.342383 5.79753
lowerneck -19.8351 0.856949 1.91294
upperneck 32.9632 2.45585 -5.22233
head 14.8664 0.527877 -2.05303
rclavicle -1.65985e-014 2.82274e-014
rhumerus -29.3871 -0.0978844 -84.3901
rradius 25.1608
rwrist -7.9496
rhand -18.6554 17.4491
rfingers 7.12502
rthumb 7.63773 -12.393
lclavicle -1.65985e-014 2.82274e-014
lhumerus -31.5878 7.69393 83.0954
lradius 30.5179
lwrist 4.67113
lhand -12.2219 33.6859
lfingers 7.12502
lthumb 13.8432 63.2053
rfemur -12.9701 2.08933 25.0846
rtibia 23.5084
rfoot -14.0629 -4.70911
rtoes 11.3829
lfemur -14.5438 2.70321 -16.2423
ltibia 25.2588
lfoot -13.2735 5.91651
ltoes -6.93617
22
root 1.15391 18.1712 -10.2102 8.84217 -5.58023 -4.07048
lowerback -7.47958 0.506632 -3.14058
upperback -1.1871 0.801994 3.80426
thorax 2.86722 0.354157 5.81762
lowerneck -19.9723 0.902967 1.90434
upperneck 33.3428 2.57709 -5.30764
head 15.0828 0.561034 -2.07711
rclavicle 2.23633e-016 2.10712e-014
rhumerus -29.3893 -0.134005 -84.2762
rradius 25.1103
rwrist -7.91552
rhand -18.592 17.303
rfingers 7.12502
rthumb 7.69898 -12.5369
lclavicle 2.23633e-016 2.10712e-014
lhumerus -31.6313 7.9968 83.0013
lradius 30.0537
lwrist 4.32042
lhand -12.084 34.08
lfingers 7.12502
lthumb 13.976 63.5902
rfemur -13.0738 2.12655 24.982
rtibia 23.629
rfoot -14.0695 -4.62088
rtoes 11.0935
lfemur -14.5815 2.7983 -16.352
ltibia 25.2992
lfoot -13.2887 5.99779
ltoes -6.93477
23
root 1.16032 18.1704 -10.2117 8.87231 -5.78622 -4.02324
lowerback -7.49762 0.54851 -3.15447
upperback -1.15825 0.858821 3.80461
thorax 2.90003 0.380938 5.83232
lowerneck -19.9041 0.976662 1.83736
upperneck 33.5142 2.71776 -5.29614
head 15.1544 0.612977 -2.03917
rclavicle 1.46604e-015 -1.43125e-014
rhumerus -29.3922 -0.238958 -84.1228
rradius 25.0207
rwrist -7.83872
rhand -18.5048 17.152
rfingers 7.12502
rthumb 7.78314 -12.6848
lclavicle 1.46604e-015 -1.43125e-014
lhumerus -31.6635 8.26142 82.9386
lradius 29.5753
lwrist 4.0162
lhand -11.7967 34.5033
lfingers 7.12502
lthumb 14.2529 63.9942
rfemur -13.1991 2.21934 24.8729
rtibia 23.764
rfoot -14.0759 -4.52484
rtoes 11.0744
lfemur -14.6051 2.83505 -16.4562
ltibia 25.3068
lfoot -13.2943 6.12848
ltoes -6.70379
